<?xml version="1.0" encoding="utf-8"?>
<!-- Generator: Adobe Illustrator 26.0.3, SVG Export Plug-In . SVG Version: 6.00 Build 0)  -->
<svg version="1.1" id="Layer_1" xmlns="http://www.w3.org/2000/svg" xmlns:xlink="http://www.w3.org/1999/xlink" x="0px" y="0px"
	 viewBox="0 0 32 32" style="enable-background:new 0 0 32 32;" xml:space="preserve">
<style type="text/css">
	.st0{fill:none;stroke:#000000;stroke-miterlimit:10;}
</style>
<path class="st0" d="M10.4,19.9c-0.6,3-0.7,6.1-0.4,9.2c0,0.3,0.1,0.6,0.2,0.8c0.2,0.2,0.5,0.4,0.7,0.3c0.2-0.1,0.3-0.2,0.4-0.4
	c1.8-2.4,0.5-6,2-8.6c-0.1,1.8,1,3.4,1.2,5.2c0.1,1,0.1,2.1,0.8,2.7c0.2,0.2,0.4,0.3,0.6,0.3c0.2,0,0.3-0.1,0.4-0.2
	c0.7-0.7,0.9-1.6,0.8-2.6s-0.3-1.8-0.5-2.7c-0.8-3.2-0.8-6.6-0.7-9.9c0-0.1,0-0.2,0-0.3c0.1-0.2,0.5-0.2,0.6,0
	c0.2,0.2,0.2,0.4,0.3,0.7c0.3,1.4,0.6,2.8,1.1,4.2c0.2,0.4,0.5,1,1,0.8c0.3-0.1,0.3-0.5,0.3-0.8c0.1-2.9-1.1-5.8-3.1-7.9
	c-0.4-0.4-0.9-1-0.8-1.6c0-0.3,0.2-0.5,0.4-0.8c0.4-0.6,0.7-1.4,0.9-2.1c0.1-0.3,0.1-0.7,0.1-1C16.6,4.7,16.3,4.3,16,4
	c-0.6-0.6-1.3-1.2-2.1-1.4c-0.8-0.2-1.8,0-2.3,0.6c-0.3,0.4-0.5,0.9-0.5,1.4c-0.1,0.9,0,1.9,0.3,2.8c0.1,0.4,0.3,0.8,0.3,1.2
	c0,0.8-0.7,1.4-1.3,1.9c-0.8,0.7-1.4,1.5-1.9,2.4c-0.9,1.6-1,3.6-0.5,5.4c0.8-0.7,1.4-1.6,1.7-2.6c0.2-0.6,0.3-1.3,0.6-1.9
	c0.3-0.6,0.7-1.2,1.3-1.4c0.2,1.1-0.2,2.2-0.5,3.3c-0.5,1.7-0.5,3.5-0.6,5.2"/>
<path class="st0" d="M13.3,8.3c0.2,0.2,0.1,0.5-0.2,0.6C13.1,8.8,13,8.7,13,8.6c0-0.1,0-0.2,0.1-0.3c0.1,0,0.2,0,0.2,0.1"/>
<path class="st0" d="M13.4,7.4c0-0.3,0-0.7,0-1c0.3,0.1,0.7,0.1,1-0.1c0.2-0.2,0.2-0.6,0.2-0.9C14.4,5,14.3,4.7,14,4.5
	c-0.3-0.2-0.7-0.2-0.9,0.1"/>
</svg>
